<svg width="124" height="28" viewBox="0 0 124 28" fill="none" xmlns="http://www.w3.org/2000/svg">
<g clip-path="url(#clip0_1163_6054)">
<path d="M18.9558 0.00146484C18.9455 0.0213845 18.9404 0.040983 18.9404 0.0602601C18.9391 3.1462 18.94 5.93271 18.9433 8.41978C18.9433 8.67954 18.9915 8.86074 19.2011 8.98701C19.2724 9.03006 19.4159 9.05159 19.6315 9.05159C22.4559 9.05448 25.2088 9.05657 27.8902 9.05785C27.9233 9.05785 27.9577 9.05191 27.9934 9.04002" stroke="#0D60A1" stroke-width="0.0963855"/>
<path d="M28.0025 22.4236C27.9861 22.4239 27.9755 22.4214 27.9707 22.4159C25.0389 19.2185 22.1064 16.022 19.1731 12.8265C19.0417 12.6835 18.9426 12.5872 18.8757 12.5374" stroke="#187EE8" stroke-width="0.0963855"/>
<path d="M18.8758 12.5372C18.8501 12.5032 18.8215 12.4638 18.79 12.4192C18.7617 12.3787 18.7429 12.3536 18.7336 12.344C17.7768 11.3432 16.8194 10.3429 15.8613 9.34303C15.6849 9.15893 15.4942 9.06688 15.2893 9.06688C14.1509 9.06785 13.0232 9.06752 11.9061 9.06592" stroke="#8DC9FC" stroke-width="0.0963855"/>
<path d="M11.9062 9.06602L8.97704 5.89011C8.96966 5.88208 8.96066 5.87678 8.95006 5.87421L8.9303 5.86987" stroke="#187EE8" stroke-width="0.0963855"/>
<path d="M8.9303 5.86978C8.8805 5.75925 8.80805 5.70383 8.71295 5.70351C7.46123 5.70287 6.20966 5.70303 4.95825 5.70399C4.71825 5.70399 4.64355 5.80809 4.64355 6.04664C4.64355 11.3716 4.64355 16.6966 4.64355 22.0216C4.64355 22.1196 4.69191 22.1956 4.78862 22.2495" stroke="#8DC9FC" stroke-width="0.0963855"/>
<path d="M4.78854 22.2498C4.78468 22.2552 4.78179 22.2597 4.77986 22.2633C4.77729 22.2681 4.77793 22.2726 4.78179 22.2767L9.82131 27.9259C9.82789 27.9334 9.83258 27.9425 9.83501 27.9525C9.83744 27.9624 9.83753 27.973 9.83528 27.9833C9.834 27.9887 9.82468 27.9926 9.80733 27.9948" stroke="#187EE8" stroke-width="0.0963855"/>
<path d="M8.9303 5.86987C8.94283 5.91293 8.94909 5.94843 8.94909 5.97638C8.94877 6.89301 8.94877 7.80995 8.94909 8.72722C8.94909 8.83035 8.96323 8.90505 8.9915 8.95132C9.03841 9.02778 9.11359 9.06602 9.21704 9.06602C10.1028 9.06602 10.9992 9.06602 11.9062 9.06602" stroke="#8BB5EB" stroke-width="0.0963855"/>
<path d="M18.8758 12.5374C18.9227 12.671 18.9462 12.7807 18.9462 12.8665C18.9458 15.9194 18.9458 18.9722 18.9462 22.0251C18.9462 22.2183 18.7794 22.2733 18.6054 22.2733C17.1208 22.2739 15.8989 22.2741 14.9399 22.2737C14.8143 22.2737 14.7277 22.2313 14.6801 22.1465C14.6548 22.1012 14.6421 22.0172 14.6421 21.8945C14.6427 20.0429 14.6427 18.1915 14.6421 16.3402C14.6421 16.2904 14.6443 16.2084 14.6488 16.094C14.657 15.8887 14.6421 15.6005 14.6425 15.4776C14.6432 15.0869 14.6427 14.6962 14.6411 14.3055C14.6405 14.1022 14.6274 13.956 14.6021 13.867C14.5134 13.5557 14.2618 13.2974 13.9539 13.2005C13.8552 13.1693 13.6919 13.1539 13.4638 13.1542C12.391 13.1545 11.3182 13.1544 10.2454 13.1537C9.99516 13.1537 9.84046 13.1584 9.78135 13.1677C9.4199 13.2246 9.10761 13.4839 8.99773 13.8294C8.96496 13.9329 8.94857 14.1205 8.94857 14.3923C8.94889 14.7216 8.94889 15.0509 8.94857 15.3802C8.94857 15.5807 8.93363 15.8434 8.93845 16.0766C8.94552 16.4191 8.94906 16.5931 8.94906 16.5986C8.94873 18.3672 8.94857 20.1357 8.94857 21.9041C8.94857 22.1272 8.89701 22.2752 8.65219 22.2757C7.68641 22.2763 6.42713 22.2718 4.87436 22.2622C4.84384 22.2622 4.81524 22.258 4.78857 22.2496" stroke="#8BB5EB" stroke-width="0.0963855"/>
<path d="M18.9557 0.0015592C18.9455 0.0214789 18.9403 0.0410773 18.9403 0.0603544C18.939 3.1463 18.94 5.9328 18.9432 8.41987C18.9432 8.67963 18.9914 8.86084 19.201 8.9871C19.2724 9.03015 19.4158 9.05168 19.6314 9.05168C22.4558 9.05457 25.2088 9.05666 27.8902 9.05795C27.9233 9.05795 27.9577 9.052 27.9933 9.04011L28.0025 22.4237C27.9861 22.424 27.9755 22.4215 27.9707 22.416C25.039 19.2186 22.1064 16.0221 19.1731 12.8266C19.0417 12.6836 18.9426 12.5873 18.8757 12.5375C18.85 12.5034 18.8214 12.464 18.79 12.4194C18.7617 12.3789 18.7429 12.3538 18.7336 12.3442C17.7768 11.3434 16.8194 10.3431 15.8613 9.34325C15.6849 9.15915 15.4942 9.0671 15.2892 9.0671C14.1509 9.06807 13.0232 9.06774 11.9061 9.06614L8.97695 5.89023C8.96956 5.8822 8.96057 5.8769 8.94996 5.87433L8.9302 5.86999C8.88041 5.75947 8.80796 5.70405 8.71286 5.70373C7.46113 5.70309 6.20956 5.70325 4.95816 5.70421C4.71816 5.70421 4.64346 5.80831 4.64346 6.04686C4.64346 11.3718 4.64346 16.6968 4.64346 22.0218C4.64346 22.1198 4.69181 22.1958 4.78852 22.2498C4.78466 22.2552 4.78177 22.2597 4.77984 22.2632C4.77727 22.2681 4.77792 22.2726 4.78177 22.2767L9.82129 27.9259C9.82787 27.9334 9.83256 27.9425 9.83499 27.9525C9.83742 27.9624 9.83751 27.973 9.83527 27.9832C9.83398 27.9887 9.82466 27.9926 9.80731 27.9948C7.15318 27.9938 4.49904 27.9932 1.8449 27.9929C1.01551 27.9929 0.296952 27.4536 0.0709277 26.6753C0.0236988 26.513 8.42863e-05 26.2136 8.42863e-05 25.777C0.00136943 13.1922 0.000405551 5.21457 -0.0028073 1.84397C-0.00328923 1.00445 0.545627 0.283969 1.33599 0.0598724C1.49085 0.0161776 1.73502 -0.00566979 2.06852 -0.00566979C5.6033 -0.00663365 11.2157 -0.00599103 18.9056 -0.00374204C18.9204 -0.00374204 18.9371 -0.00197494 18.9557 0.0015592Z" fill="#1A92F9"/>
<path d="M27.9934 9.04002C27.9577 9.05191 27.9233 9.05785 27.8902 9.05785C25.2088 9.05657 22.4559 9.05448 19.6315 9.05159C19.4159 9.05159 19.2724 9.03006 19.2011 8.98701C18.9915 8.86074 18.9433 8.67954 18.9433 8.41978C18.94 5.93271 18.9391 3.1462 18.9404 0.0602601C18.9404 0.040983 18.9455 0.0213845 18.9558 0.00146484L27.9934 9.04002Z" fill="#002D49"/>
<path d="M92.8705 8.40141C92.4184 8.42454 91.989 8.32767 91.6348 8.04044C91.1555 7.65265 90.9457 7.14663 91.0054 6.52237C91.0893 5.64526 91.8608 5.09394 92.6999 5.05153C93.5384 5.00864 94.362 5.47851 94.5346 6.34309C94.6576 6.95771 94.5004 7.48237 94.0628 7.91707C93.7394 8.23852 93.322 8.37827 92.8705 8.40141Z" fill="#002D49"/>
<path d="M8.9303 5.86978C8.94283 5.91283 8.9491 5.94833 8.9491 5.97628C8.94878 6.89291 8.94878 7.80986 8.9491 8.72712C8.9491 8.83026 8.96323 8.90496 8.99151 8.95122C9.03841 9.02769 9.11359 9.06592 9.21705 9.06592C10.1028 9.06592 10.9992 9.06592 11.9062 9.06592C13.0233 9.06753 14.151 9.06785 15.2893 9.06688C15.4943 9.06688 15.685 9.15893 15.8614 9.34303C16.8195 10.3429 17.7769 11.3432 18.7337 12.344C18.743 12.3536 18.7618 12.3787 18.7901 12.4192C18.8215 12.4638 18.8501 12.5032 18.8758 12.5372C18.9228 12.6709 18.9462 12.7806 18.9462 12.8664C18.9459 15.9193 18.9459 18.9721 18.9462 22.025C18.9462 22.2182 18.7795 22.2731 18.6055 22.2731C17.1208 22.2738 15.899 22.274 14.9399 22.2736C14.8143 22.2736 14.7277 22.2312 14.6802 22.1464C14.6548 22.1011 14.6421 22.0171 14.6421 21.8944C14.6428 20.0428 14.6428 18.1914 14.6421 16.3401C14.6421 16.2903 14.6444 16.2083 14.6489 16.0939C14.657 15.8886 14.6421 15.6004 14.6426 15.4775C14.6432 15.0868 14.6427 14.6961 14.6411 14.3054C14.6405 14.1021 14.6275 13.9559 14.6021 13.8669C14.5134 13.5556 14.2619 13.2972 13.9539 13.2004C13.8553 13.1692 13.6919 13.1538 13.4638 13.1541C12.391 13.1544 11.3183 13.1543 10.2455 13.1536C9.9952 13.1536 9.8405 13.1583 9.78139 13.1676C9.41994 13.2245 9.10765 13.4838 8.99777 13.8293C8.965 13.9327 8.94861 14.1204 8.94861 14.3922C8.94894 14.7215 8.94894 15.0508 8.94861 15.3801C8.94861 15.5806 8.93368 15.8433 8.93849 16.0765C8.94556 16.419 8.9491 16.593 8.9491 16.5985C8.94878 18.3671 8.94861 20.1356 8.94861 21.904C8.94861 22.1271 8.89705 22.2751 8.65223 22.2756C7.68645 22.2762 6.42717 22.2717 4.8744 22.2621C4.84388 22.2621 4.81528 22.2579 4.78862 22.2495C4.69191 22.1956 4.64355 22.1196 4.64355 22.0216C4.64355 16.6966 4.64355 11.3716 4.64355 6.04664C4.64355 5.80809 4.71825 5.70399 4.95825 5.70399C6.20966 5.70303 7.46123 5.70287 8.71295 5.70351C8.80805 5.70383 8.8805 5.75925 8.9303 5.86978Z" fill="white"/>
<path d="M38.0276 11.7214C38.0276 11.7232 38.0281 11.725 38.0292 11.7266C38.0302 11.7281 38.0317 11.7293 38.0334 11.73C38.0351 11.7306 38.037 11.7308 38.0388 11.7304C38.0406 11.73 38.0423 11.729 38.0435 11.7276C39.3057 10.3787 41.2647 9.99897 43.0681 10.2746C43.5304 10.3453 43.9804 10.4799 44.418 10.6785C45.6266 11.2274 46.4657 12.3382 46.7852 13.6144C46.9208 14.1567 46.9899 14.7191 46.9924 15.3016C46.9944 15.7109 46.9948 18.0348 46.9939 22.2732C46.9939 22.2757 46.9934 22.2782 46.9924 22.2806C46.9914 22.2829 46.99 22.285 46.9882 22.2868C46.9864 22.2886 46.9843 22.29 46.982 22.291C46.9796 22.292 46.9771 22.2925 46.9746 22.2925H44.217C44.2115 22.2925 44.2062 22.2903 44.2024 22.2865C44.1985 22.2827 44.1963 22.2776 44.1963 22.2722C44.1963 19.2563 44.1961 17.0651 44.1958 15.6987C44.1953 14.3267 43.6536 13.0496 42.1871 12.7421C41.5394 12.6062 40.9002 12.6255 40.2695 12.7999C38.7134 13.2298 38.0541 14.5527 38.0334 16.0722C38.027 16.5525 38.0252 18.6168 38.0281 22.265C38.0281 22.2836 38.0188 22.2929 38.0001 22.2929H35.2965C35.2667 22.2929 35.2517 22.278 35.2517 22.2481V5.71125C35.2517 5.7078 35.2531 5.70449 35.2555 5.70205C35.258 5.69961 35.2613 5.69824 35.2647 5.69824H38.0016C38.0085 5.69824 38.0151 5.70098 38.02 5.70586C38.0249 5.71074 38.0276 5.71736 38.0276 5.72427V11.7214Z" fill="#002D49"/>
<path d="M65.5307 20.8173V22.2669C65.5307 22.2843 65.5218 22.2929 65.5042 22.2929H62.9046C62.8944 22.2929 62.8846 22.2889 62.8774 22.2816C62.8702 22.2744 62.8661 22.2646 62.8661 22.2544V5.71125C62.8661 5.7078 62.8675 5.70449 62.8699 5.70205C62.8723 5.69961 62.8757 5.69824 62.8791 5.69824H65.616C65.6229 5.69824 65.6295 5.70098 65.6344 5.70586C65.6393 5.71074 65.642 5.71736 65.642 5.72427V11.7566C65.642 11.7816 65.6502 11.7848 65.6666 11.7662C66.4381 10.8915 67.5567 10.3681 68.7177 10.238C70.7225 10.0129 72.7201 10.6245 74.0536 12.1469C74.7273 12.9167 75.1662 13.8012 75.3702 14.8004C75.8584 17.1898 75.2425 19.8168 73.1577 21.3156C72.4058 21.856 71.5671 22.202 70.6415 22.3537C68.802 22.6544 66.8174 22.2664 65.5538 20.8086C65.5384 20.7909 65.5307 20.7938 65.5307 20.8173ZM65.5996 16.3296C65.5996 16.7855 65.6605 17.2158 65.7822 17.6207C66.2381 19.1368 67.5495 20.0713 69.1417 20.0713C70.7345 20.0708 72.0454 19.1358 72.5008 17.6197C72.6222 17.2145 72.683 16.784 72.683 16.3281C72.683 15.8722 72.6221 15.4419 72.5003 15.037C72.0444 13.5204 70.7331 12.5864 69.1408 12.5864C67.548 12.5869 66.2372 13.5214 65.7818 15.038C65.66 15.4431 65.5993 15.8737 65.5996 16.3296Z" fill="#002D49"/>
<path d="M11.9061 9.06602C10.9991 9.06602 10.1027 9.06602 9.21692 9.06602C9.11347 9.06602 9.03829 9.02778 8.99138 8.95132C8.96311 8.90505 8.94897 8.83035 8.94897 8.72722C8.94865 7.80995 8.94865 6.89301 8.94897 5.97638C8.94897 5.94843 8.94271 5.91293 8.93018 5.86987L8.94993 5.87421C8.96054 5.87678 8.96953 5.88208 8.97692 5.89011L11.9061 9.06602Z" fill="#166AD7"/>
<path d="M77.7105 18.4115C78.0376 18.6634 78.3908 18.8884 78.7703 19.0867C80.0994 19.781 81.4972 20.1259 82.9635 20.1214C83.5775 20.1197 84.1393 20.0507 84.6488 19.9141C85.6228 19.6529 86.4001 18.9951 86.3134 17.905C86.2262 16.8081 84.9163 16.3527 84.0242 16.1083C83.507 15.9667 82.8819 15.8165 82.1491 15.6577C81.8252 15.5877 81.3357 15.4518 80.6806 15.25C80.1251 15.0791 79.5719 14.8457 79.0209 14.5498C77.9375 13.9681 77.1987 13.0163 77.0599 11.7724C76.9934 11.1787 77.0059 10.585 77.1582 10.0105C77.4509 8.91043 78.1005 8.05099 79.1071 7.4322C80.0705 6.83991 81.1283 6.57436 82.2825 6.47846C83.8491 6.34834 85.35 6.51926 86.7852 6.99123C87.4034 7.19461 87.9823 7.46802 88.5221 7.81147C88.5343 7.81951 88.5376 7.83027 88.5322 7.84376L87.6315 10.0621C87.626 10.0756 87.6168 10.0788 87.604 10.0717C87.3829 9.95059 87.2197 9.86256 87.1144 9.80762C85.6459 9.04424 83.9115 8.69822 82.2522 8.92473C81.5481 9.02111 80.7153 9.30449 80.2691 9.89918C79.8604 10.4438 79.765 11.2322 80.1519 11.8356C80.2348 11.965 80.3624 12.0953 80.5346 12.2264C81.0184 12.5946 81.5953 12.7854 82.1823 12.9401C82.8249 13.1095 83.4774 13.2682 84.1399 13.4163C84.4959 13.496 85.0279 13.6468 85.736 13.8688C86.3484 14.0606 86.9293 14.3267 87.4787 14.6669C88.0541 15.0229 88.4991 15.4977 88.8136 16.0915C89.0642 16.5642 89.1698 17.1614 89.1852 17.7199C89.2291 19.3373 88.4517 20.743 87.0662 21.5589C86.0392 22.1638 84.9577 22.4269 83.7953 22.5054C81.7852 22.6418 79.8021 22.331 77.9972 21.4809C77.5375 21.2643 77.1057 20.9965 76.7018 20.6775C76.6962 20.6731 76.6922 20.667 76.6904 20.6601C76.6887 20.6532 76.6893 20.6459 76.6922 20.6394L77.6825 18.4187C77.6837 18.4162 77.6855 18.4139 77.6876 18.4121C77.6898 18.4103 77.6923 18.4091 77.695 18.4084C77.6976 18.4077 77.7004 18.4076 77.7031 18.4081C77.7058 18.4087 77.7083 18.4098 77.7105 18.4115Z" fill="#002D49"/>
<path d="M106.349 11.9025V10.397C106.349 10.3809 106.358 10.3729 106.374 10.3729H108.989C109.004 10.3729 109.012 10.3806 109.012 10.396C109.011 11.3573 109.012 14.7233 109.014 20.4939C109.015 22.5546 108.514 24.6442 106.664 25.809C105.37 26.6235 103.847 26.8322 102.268 26.8042C101.488 26.7901 100.682 26.6902 99.8497 26.5045C98.7345 26.2553 97.6637 25.8206 96.7712 25.1006C96.7664 25.0968 96.7631 25.0913 96.7621 25.0852C96.761 25.0791 96.7622 25.0727 96.7654 25.0674L97.9933 23.0264C98.0026 23.011 98.0144 23.0089 98.0285 23.0201C99.2945 24.0409 101.045 24.4929 102.665 24.4543C103.237 24.4409 103.759 24.3539 104.231 24.1936C105.465 23.7758 106.058 22.7372 106.179 21.4828C106.215 21.0995 106.225 20.6768 106.208 20.2148C106.208 20.2134 106.208 20.212 106.207 20.2108C106.206 20.2096 106.205 20.2087 106.204 20.2082C106.202 20.2077 106.201 20.2076 106.199 20.2079C106.198 20.2082 106.197 20.2089 106.196 20.21C104.683 21.8264 102.189 22.0876 100.189 21.4881C98.1345 20.8731 96.5794 19.1883 96.2526 17.0495C95.9447 15.0351 96.4863 13.0847 97.9914 11.716C98.8353 10.9488 99.9461 10.4688 101.072 10.2992C102.971 10.0134 105.018 10.4095 106.331 11.9098C106.343 11.9239 106.349 11.9215 106.349 11.9025ZM98.9953 16.0018C98.9948 18.1213 100.611 19.3984 102.627 19.3989C104.642 19.3994 106.258 18.1223 106.259 16.0033C106.259 13.8842 104.644 12.6066 102.628 12.6066C100.612 12.6062 98.9957 13.8828 98.9953 16.0018Z" fill="#002D49"/>
<path d="M114.713 11.8675C115.872 10.5306 117.696 10.0843 119.401 10.2434C120.86 10.3798 122.12 10.973 122.936 12.2173C123.52 13.1065 123.758 14.1942 123.761 15.2458C123.769 18.3487 123.769 20.6972 123.761 22.2911C123.76 22.3081 123.752 22.3166 123.735 22.3166H120.993C120.977 22.3166 120.968 22.3083 120.968 22.2916C120.966 17.952 120.965 15.7786 120.965 15.7716C120.964 14.4019 120.477 13.1041 118.989 12.774C117.379 12.4164 115.602 13.0164 115.036 14.6983C114.87 15.1934 114.789 15.72 114.793 16.2781C114.795 16.5116 114.797 18.5185 114.799 22.2988C114.799 22.3035 114.797 22.3081 114.794 22.3114C114.791 22.3147 114.786 22.3166 114.781 22.3166H112.038C112.036 22.3166 112.035 22.3163 112.033 22.3156C112.031 22.3149 112.03 22.3139 112.029 22.3127C112.027 22.3114 112.026 22.3099 112.026 22.3083C112.025 22.3067 112.025 22.3049 112.025 22.3031V10.3971C112.025 10.3907 112.027 10.3846 112.032 10.3801C112.036 10.3755 112.042 10.373 112.049 10.373H114.663C114.679 10.373 114.687 10.3812 114.687 10.3976V11.8578C114.687 11.8842 114.696 11.8874 114.713 11.8675Z" fill="#002D49"/>
<path d="M57.9423 20.8019C57.6942 21.0711 57.4875 21.2689 57.322 21.3951C56.5362 21.9924 55.642 22.3347 54.6396 22.4221C53.0647 22.559 51.2844 22.1638 50.1871 20.9412C49.2941 19.946 48.9533 18.6351 48.9514 17.3127C48.9472 14.8128 48.9468 12.5004 48.95 10.3754C48.95 10.358 48.9586 10.3494 48.976 10.3494H51.7572C51.761 10.3494 51.7647 10.3509 51.7674 10.3536C51.7701 10.3563 51.7717 10.36 51.7717 10.3638C51.7701 13.7627 51.7707 15.9788 51.7736 17.012C51.7774 18.28 52.3268 19.5195 53.6232 19.8602C54.2838 20.034 54.9468 20.03 55.6121 19.8482C57.1692 19.4226 57.8155 18.0443 57.8237 16.5315C57.8269 15.9873 57.8288 13.9351 57.8295 10.3749C57.8295 10.3579 57.838 10.3494 57.855 10.3494H60.615C60.6181 10.3494 60.621 10.3506 60.6232 10.3529C60.6254 10.3552 60.6266 10.3582 60.6266 10.3614V22.267C60.6266 22.284 60.6179 22.2925 60.6006 22.2925H57.976C57.9719 22.2925 57.968 22.2909 57.9651 22.288C57.9622 22.2851 57.9606 22.2812 57.9606 22.2771V20.8091C57.9606 20.7911 57.9545 20.7887 57.9423 20.8019Z" fill="#002D49"/>
<path d="M94.1514 10.373H91.417C91.4055 10.373 91.3962 10.3823 91.3962 10.3938V22.2964C91.3962 22.3079 91.4055 22.3171 91.417 22.3171H94.1514C94.1629 22.3171 94.1721 22.3079 94.1721 22.2964V10.3938C94.1721 10.3823 94.1629 10.373 94.1514 10.373Z" fill="#002D49"/>
<path d="M28.0025 22.4236C28.0038 23.5192 28.0041 24.6149 28.0035 25.7108C28.0032 26.1847 27.981 26.5039 27.937 26.6684C27.7259 27.4564 26.9948 27.9904 26.1688 27.9908C20.715 27.9947 15.2611 27.996 9.80733 27.9947C9.82468 27.9925 9.834 27.9886 9.83528 27.9831C9.83753 27.9729 9.83744 27.9623 9.83501 27.9523C9.83258 27.9424 9.82789 27.9333 9.82131 27.9258L4.78179 22.2766C4.77793 22.2725 4.77729 22.268 4.77986 22.2631C4.78179 22.2596 4.78468 22.2551 4.78854 22.2496C4.8152 22.258 4.8438 22.2622 4.87432 22.2622C6.42709 22.2718 7.68637 22.2763 8.65215 22.2757C8.89697 22.2752 8.94854 22.1272 8.94854 21.9041C8.94854 20.1357 8.9487 18.3672 8.94902 16.5986C8.94902 16.5931 8.94549 16.4191 8.93842 16.0766C8.9336 15.8434 8.94854 15.5807 8.94854 15.3802C8.94886 15.0509 8.94886 14.7216 8.94854 14.3923C8.94854 14.1205 8.96492 13.9329 8.99769 13.8294C9.10757 13.4839 9.41986 13.2246 9.78131 13.1677C9.84043 13.1584 9.99512 13.1537 10.2454 13.1537C11.3182 13.1544 12.3909 13.1545 13.4637 13.1542C13.6918 13.1539 13.8552 13.1693 13.9538 13.2005C14.2618 13.2974 14.5134 13.5557 14.602 13.867C14.6274 13.956 14.6404 14.1022 14.6411 14.3055C14.6427 14.6962 14.6432 15.0869 14.6425 15.4776C14.642 15.6005 14.657 15.8887 14.6488 16.094C14.6443 16.2084 14.642 16.2904 14.642 16.3402C14.6427 18.1915 14.6427 20.0429 14.642 21.8945C14.642 22.0172 14.6547 22.1012 14.6801 22.1465C14.7277 22.2313 14.8142 22.2737 14.9399 22.2737C15.8989 22.2741 17.1207 22.2739 18.6054 22.2733C18.7794 22.2733 18.9461 22.2183 18.9461 22.0251C18.9458 18.9722 18.9458 15.9194 18.9461 12.8665C18.9461 12.7807 18.9227 12.671 18.8758 12.5374C18.9426 12.5872 19.0417 12.6835 19.1731 12.8265C22.1064 16.022 25.039 19.2185 27.9707 22.4159C27.9755 22.4214 27.9861 22.4239 28.0025 22.4236Z" fill="#166AD7"/>
</g>
<defs>
<clipPath id="clip0_1163_6054">
<rect width="123.759" height="28" fill="white"/>
</clipPath>
</defs>
</svg>
