<svg width="100" height="28" viewBox="0 0 100 28" fill="none" xmlns="http://www.w3.org/2000/svg">
<rect width="28" height="28" rx="3.73333" fill="#2563EB"/>
<path d="M13.3916 19.3425L10.9459 21.1826C10.03 21.9479 9.10465 22.7073 8.16978 23.4607C8.00062 23.5972 7.878 23.6829 7.80193 23.7178C6.96265 24.1034 6.3711 23.0361 7.04974 22.4965C7.68733 21.9893 8.36546 21.4277 9.08413 20.8119L10.6201 19.4352C12.762 17.4421 14.7394 15.3001 16.5521 13.009C17.2387 12.14 17.8733 11.2397 18.4558 10.3079C18.7501 9.83855 18.9908 9.34876 19.178 8.83853C19.1863 8.81551 19.1878 8.79056 19.1823 8.7667C19.1769 8.74283 19.1647 8.72105 19.1473 8.704C19.1298 8.68694 19.1078 8.67532 19.084 8.67055C19.0601 8.66578 19.0354 8.66805 19.0129 8.6771C18.067 9.05179 17.1271 9.55404 16.1932 10.1839C16.1262 10.2287 15.1373 10.8749 13.2265 12.1226C12.0023 12.9218 10.7437 13.5875 9.45047 14.1197C7.67882 14.8491 4.80065 15.474 3.64307 13.3289C3.15512 12.4246 3.19415 11.0733 3.4629 10.1061C4.05345 7.98849 5.20502 6.27047 6.91761 4.95205C8.00913 4.11198 9.71171 3.75322 10.569 5.07164C11.9578 7.2092 9.85434 10.7235 8.34394 12.2392C8.06468 12.5182 7.75689 12.5521 7.42058 12.3409C7.41558 12.3379 7.39806 12.3229 7.36803 12.296C7.03672 12.004 7.00319 11.6811 7.26744 11.3274C7.43459 11.1042 7.75689 10.6746 8.23434 10.0389C8.97603 9.05079 9.75675 7.48574 9.51953 6.2331C9.32435 5.20617 8.24034 5.75028 7.74338 6.14789C6.19994 7.38409 4.87722 9.40058 4.71356 11.435C4.55892 13.3618 6.08284 13.6084 7.5437 13.2228C10.1726 12.5292 12.4518 10.9701 14.8135 9.33481C15.5071 8.85448 16.3304 8.36767 17.2832 7.87439C17.8187 7.59635 18.3217 7.39705 18.7921 7.27647C19.8581 7.00441 20.7785 7.48723 20.6524 8.72493C20.6023 9.20924 20.4182 9.74837 20.0999 10.3423C19.0369 12.3184 17.7442 13.9298 16.2143 15.7012C16.1982 15.7201 16.1917 15.743 16.1947 15.7699C16.1953 15.7762 16.1976 15.7823 16.2012 15.7875C16.2048 15.7928 16.2097 15.7971 16.2155 15.8C16.2212 15.803 16.2277 15.8045 16.2343 15.8044C16.2409 15.8044 16.2474 15.8028 16.2533 15.7998C18.6185 14.4645 21.1218 13.3603 23.7633 12.4873C24.7061 12.1749 25.1896 13.5352 24.1446 13.879C20.3281 15.1346 16.7437 16.9558 13.3916 19.3425Z" fill="#E8EEFD"/>
<g clip-path="url(#clip0_19_4320)">
<path d="M40.4644 22.2049C39.143 22.2049 37.9846 21.9243 36.989 21.3632C35.9934 20.784 35.2242 19.9784 34.6811 18.9467C34.1381 17.9149 33.8666 16.7022 33.8666 15.3084C33.8666 13.9327 34.1381 12.729 34.6811 11.6973C35.2242 10.6474 35.9934 9.83283 36.989 9.2536C37.9846 8.65627 39.143 8.3576 40.4644 8.3576C41.8039 8.3576 42.9623 8.65627 43.9398 9.2536C44.9353 9.85093 45.7046 10.6745 46.2477 11.7244C46.7907 12.7561 47.0622 13.9418 47.0622 15.2813C47.0622 15.4803 47.0532 15.6795 47.0351 15.8786C47.0351 16.0596 47.017 16.2134 46.9807 16.3401H36.7718V13.6793H44.2927L43.7497 14.9554C43.7497 13.8331 43.4782 12.919 42.9352 12.2131C42.4103 11.5072 41.5866 11.1542 40.4644 11.1542C39.4869 11.1542 38.6996 11.4619 38.1022 12.0774C37.5049 12.6747 37.2062 13.4802 37.2062 14.4938V15.9329C37.2062 17.0008 37.5049 17.8425 38.1022 18.4579C38.7177 19.0553 39.5503 19.3539 40.6002 19.3539C41.5233 19.3539 42.2473 19.1639 42.7723 18.7838C43.2972 18.4037 43.7497 17.933 44.1298 17.3719L46.6006 18.7838C46.0033 19.888 45.1887 20.7387 44.157 21.336C43.1433 21.9152 41.9125 22.2049 40.4644 22.2049ZM55.7265 22.3678C54.6947 22.3678 53.7173 22.2139 52.7942 21.9062C51.871 21.5985 51.0384 21.1188 50.2962 20.4672C49.5722 19.8155 48.9568 18.9648 48.4499 17.9149L51.2737 16.2044C51.8348 17.1637 52.4955 17.8787 53.2557 18.3494C54.016 18.82 54.8939 19.0553 55.8894 19.0553C56.7945 19.0553 57.4823 18.8653 57.9529 18.4851C58.4236 18.0869 58.6589 17.5619 58.6589 16.9103C58.6589 16.494 58.5503 16.141 58.3331 15.8514C58.1339 15.5437 57.7719 15.2541 57.247 14.9826C56.7221 14.711 55.9618 14.4667 54.9663 14.2495C53.482 13.8875 52.3145 13.4349 51.4637 12.8919C50.6311 12.3489 50.0428 11.7153 49.6989 10.9913C49.355 10.2491 49.183 9.43462 49.183 8.54767C49.183 7.47971 49.4364 6.54749 49.9432 5.75105C50.4682 4.9365 51.2103 4.29392 52.1697 3.82329C53.129 3.35266 54.2694 3.11735 55.5907 3.11735C57.1112 3.11735 58.3874 3.41602 59.4191 4.01335C60.4509 4.59258 61.2926 5.37998 61.9442 6.37554L59.1205 8.30328C58.6136 7.65167 58.0344 7.19009 57.3827 6.91856C56.7492 6.62895 56.0976 6.48414 55.4278 6.48414C54.559 6.48414 53.8893 6.6561 53.4186 7.00002C52.9661 7.34395 52.7398 7.82359 52.7398 8.43903C52.7398 8.98209 52.9661 9.45273 53.4186 9.85093C53.8893 10.231 54.7943 10.584 56.1338 10.9098C57.6543 11.2718 58.867 11.7153 59.7721 12.2403C60.6771 12.7652 61.3197 13.3987 61.6998 14.1409C62.0981 14.883 62.2972 15.779 62.2972 16.8289C62.2972 17.8787 62.0257 18.82 61.4826 19.6526C60.9577 20.4853 60.1974 21.1459 59.2019 21.6347C58.2245 22.1234 57.066 22.3678 55.7265 22.3678ZM68.2007 21.9334H64.6439V8.65627H68.2007V21.9334ZM64.2638 4.52923C64.2638 3.87759 64.4538 3.35266 64.8339 2.95444C65.2322 2.53812 65.7571 2.32996 66.4087 2.32996C67.0604 2.32996 67.5762 2.53812 67.9564 2.95444C68.3546 3.35266 68.5537 3.87759 68.5537 4.52923C68.5537 5.14466 68.3546 5.65149 67.9564 6.04971C67.5762 6.44794 67.0604 6.64705 66.4087 6.64705C65.7571 6.64705 65.2322 6.44794 64.8339 6.04971C64.4538 5.65149 64.2638 5.14466 64.2638 4.52923ZM77.1898 27.3637C76.4658 27.3637 75.7417 27.255 75.0177 27.0378C74.3117 26.8206 73.6601 26.4677 73.0627 25.9789C72.4654 25.5083 71.9586 24.8657 71.5423 24.0512L71.3251 23.6168L73.9587 22.2592C74.4113 22.9832 74.8819 23.5081 75.3707 23.8339C75.8594 24.1779 76.4748 24.3498 77.2169 24.3498C78.1401 24.3498 78.8822 24.0602 79.4434 23.481C80.0226 22.9018 80.3121 22.0148 80.3121 20.8201V17.4805H80.5566V11.7787H80.3121L81.181 8.65627H83.869V20.1142C83.869 21.6709 83.5886 22.9923 83.0272 24.0783C82.4844 25.1644 81.7149 25.9789 80.7195 26.5219C79.7239 27.0831 78.5474 27.3637 77.1898 27.3637ZM76.7282 21.2003C75.5336 21.2003 74.4747 20.9288 73.5515 20.3857C72.6283 19.8427 71.9043 19.0915 71.3794 18.1321C70.8544 17.1728 70.592 16.0596 70.592 14.7925C70.592 13.5254 70.8454 12.4122 71.3522 11.4529C71.8771 10.4754 72.6012 9.71518 73.5243 9.17212C74.4475 8.62911 75.5064 8.3576 76.7011 8.3576C77.8233 8.3576 78.8098 8.62911 79.6606 9.17212C80.5114 9.69707 81.1722 10.4483 81.6426 11.4257C82.1134 12.3851 82.3486 13.5073 82.3486 14.7925C82.3486 16.1139 82.1134 17.2542 81.6426 18.2136C81.1899 19.1549 80.5384 19.888 79.6877 20.4129C78.8551 20.9378 77.8686 21.2003 76.7282 21.2003ZM77.3527 18.0778C78.2758 18.0778 79.027 17.7701 79.6063 17.1547C80.1855 16.5392 80.475 15.7428 80.475 14.7654C80.475 13.7879 80.1855 12.9915 79.6063 12.376C79.027 11.7606 78.2758 11.4529 77.3527 11.4529C76.4296 11.4529 75.6693 11.7606 75.072 12.376C74.4928 12.9915 74.2031 13.7969 74.2031 14.7925C74.2031 15.7518 74.4928 16.5392 75.072 17.1547C75.6693 17.7701 76.4296 18.0778 77.3527 18.0778ZM94.8978 8.3576C95.8031 8.3576 96.5269 8.51146 97.0701 8.81918C97.631 9.1269 98.0473 9.54321 98.3189 10.0681C98.6087 10.5931 98.7986 11.1904 98.8892 11.8601C98.9797 12.5118 99.025 13.1906 99.025 13.8965V21.9334H95.468V13.8694C95.468 13.0548 95.3052 12.5118 94.9794 12.2403C94.6714 11.9688 94.2734 11.833 93.7848 11.833C93.3321 11.833 92.8706 11.9235 92.4002 12.1045C91.9293 12.2674 91.486 12.5118 91.0697 12.8376C90.6712 13.1453 90.3272 13.4983 90.0379 13.8965L89.5764 12.0502H90.4724V21.9334H86.9154V8.65627H89.5764L90.3095 11.2085L89.169 11.1542C89.6394 10.6112 90.1737 10.1315 90.771 9.71518C91.3861 9.29887 92.038 8.97304 92.7259 8.7377C93.4138 8.4843 94.1376 8.3576 94.8978 8.3576Z" fill="#0D358C"/>
</g>
<defs>
<clipPath id="clip0_19_4320">
<rect width="65.8" height="25.2" fill="white" transform="translate(33.6001 2.33337)"/>
</clipPath>
</defs>
</svg>
