<svg width="208" height="64" viewBox="0 0 208 64" fill="none" xmlns="http://www.w3.org/2000/svg">
<rect x="0.5" y="0.5" width="199" height="55" rx="7.5" fill="#2563EB" fill-opacity="0.1"/>
<rect x="0.5" y="0.5" width="199" height="55" rx="7.5" stroke="#1A92F9"/>
<rect x="68.5" y="16.5" width="23" height="23" rx="3.5" fill="#E6F3FE"/>
<rect x="68.5" y="16.5" width="23" height="23" rx="3.5" stroke="#389FFA"/>
<path d="M74 26.6673H86M77.3333 24.0007V21.334M82.6667 24.0007V21.334M78.2667 34.6673H81.7333C83.2268 34.6673 83.9735 34.6673 84.544 34.3767C85.0457 34.121 85.4537 33.7131 85.7094 33.2113C86 32.6409 86 31.8941 86 30.4007V26.934C86 25.4405 86 24.6938 85.7094 24.1233C85.4537 23.6216 85.0457 23.2136 84.544 22.958C83.9735 22.6673 83.2268 22.6673 81.7333 22.6673H78.2667C76.7732 22.6673 76.0265 22.6673 75.456 22.958C74.9543 23.2136 74.5463 23.6216 74.2906 24.1233C74 24.6938 74 25.4405 74 26.934V30.4007C74 31.8941 74 32.6409 74.2906 33.2113C74.5463 33.7131 74.9543 34.121 75.456 34.3767C76.0265 34.6673 76.7732 34.6673 78.2667 34.6673Z" stroke="#1A92F9" stroke-linecap="round"/>
<path d="M104.375 33H101.233V22.8182H104.514C105.502 22.8182 106.347 23.022 107.05 23.4297C107.752 23.834 108.291 24.4157 108.665 25.1747C109.04 25.9304 109.227 26.8352 109.227 27.8892C109.227 28.9498 109.038 29.8629 108.661 30.6286C108.283 31.3909 107.732 31.9775 107.01 32.3885C106.287 32.7962 105.409 33 104.375 33ZM102.466 31.9062H104.295C105.137 31.9062 105.835 31.7438 106.388 31.419C106.942 31.0942 107.355 30.6319 107.626 30.032C107.898 29.4321 108.034 28.7178 108.034 27.8892C108.034 27.0672 107.9 26.3596 107.631 25.7663C107.363 25.1697 106.962 24.7124 106.428 24.3942C105.895 24.0727 105.23 23.9119 104.435 23.9119H102.466V31.9062ZM113.384 33.179C112.9 33.179 112.46 33.0878 112.066 32.9055C111.672 32.7199 111.358 32.4531 111.126 32.1051C110.894 31.7538 110.778 31.3295 110.778 30.8324C110.778 30.3949 110.865 30.0402 111.037 29.7685C111.209 29.4934 111.44 29.2779 111.728 29.1222C112.016 28.9664 112.335 28.8504 112.683 28.7741C113.034 28.6946 113.387 28.6316 113.741 28.5852C114.205 28.5256 114.582 28.4808 114.87 28.451C115.162 28.4179 115.374 28.3632 115.506 28.2869C115.642 28.2107 115.71 28.0781 115.71 27.8892V27.8494C115.71 27.3589 115.576 26.9777 115.308 26.706C115.042 26.4342 114.64 26.2983 114.099 26.2983C113.539 26.2983 113.1 26.4209 112.782 26.6662C112.464 26.9115 112.24 27.1733 112.111 27.4517L110.997 27.054C111.196 26.59 111.461 26.2287 111.793 25.9702C112.127 25.7083 112.492 25.526 112.886 25.4233C113.284 25.3172 113.675 25.2642 114.06 25.2642C114.305 25.2642 114.587 25.294 114.905 25.3537C115.226 25.41 115.536 25.5277 115.835 25.7067C116.136 25.8857 116.386 26.1558 116.585 26.517C116.784 26.8783 116.884 27.3622 116.884 27.9688V33H115.71V31.9659H115.651C115.571 32.1316 115.438 32.3089 115.253 32.4979C115.067 32.6868 114.82 32.8475 114.512 32.9801C114.204 33.1127 113.828 33.179 113.384 33.179ZM113.562 32.125C114.027 32.125 114.418 32.0339 114.736 31.8516C115.057 31.6693 115.299 31.4339 115.462 31.1456C115.627 30.8572 115.71 30.554 115.71 30.2358V29.1619C115.661 29.2216 115.551 29.2763 115.382 29.326C115.216 29.3724 115.024 29.4138 114.805 29.4503C114.59 29.4834 114.379 29.5133 114.174 29.5398C113.972 29.563 113.808 29.5829 113.682 29.5994C113.377 29.6392 113.092 29.7038 112.827 29.7933C112.565 29.8795 112.353 30.0104 112.19 30.1861C112.031 30.3584 111.952 30.5937 111.952 30.892C111.952 31.2997 112.103 31.608 112.404 31.8168C112.709 32.0223 113.095 32.125 113.562 32.125ZM122.346 25.3636V26.358H118.389V25.3636H122.346ZM119.542 23.5341H120.715V30.8125C120.715 31.1439 120.763 31.3925 120.86 31.5582C120.959 31.7206 121.085 31.83 121.237 31.8864C121.393 31.9394 121.557 31.9659 121.73 31.9659C121.859 31.9659 121.965 31.9593 122.048 31.946C122.131 31.9295 122.197 31.9162 122.247 31.9062L122.485 32.9602C122.406 32.9901 122.295 33.0199 122.152 33.0497C122.01 33.0829 121.829 33.0994 121.61 33.0994C121.279 33.0994 120.954 33.0282 120.636 32.8857C120.321 32.7431 120.059 32.526 119.85 32.2344C119.645 31.9427 119.542 31.5748 119.542 31.1307V23.5341ZM127.231 33.1591C126.495 33.1591 125.86 32.9967 125.327 32.6719C124.796 32.3438 124.387 31.8864 124.099 31.2997C123.814 30.7098 123.671 30.0237 123.671 29.2415C123.671 28.4593 123.814 27.7699 124.099 27.1733C124.387 26.5734 124.788 26.1061 125.302 25.7713C125.819 25.4332 126.422 25.2642 127.111 25.2642C127.509 25.2642 127.902 25.3305 128.29 25.4631C128.677 25.5956 129.03 25.8111 129.349 26.1094C129.667 26.4044 129.92 26.7955 130.109 27.2827C130.298 27.7699 130.393 28.3698 130.393 29.0824V29.5795H124.506V28.5653H129.199C129.199 28.1345 129.113 27.75 128.941 27.4119C128.772 27.0739 128.53 26.8071 128.215 26.6115C127.903 26.416 127.536 26.3182 127.111 26.3182C126.644 26.3182 126.24 26.4342 125.898 26.6662C125.56 26.8949 125.3 27.1932 125.118 27.5611C124.935 27.929 124.844 28.3234 124.844 28.7443V29.4205C124.844 29.9972 124.944 30.486 125.143 30.8871C125.345 31.2848 125.625 31.5881 125.983 31.7969C126.341 32.0024 126.757 32.1051 127.231 32.1051C127.539 32.1051 127.817 32.062 128.066 31.9759C128.318 31.8864 128.535 31.7538 128.717 31.5781C128.899 31.3991 129.04 31.1771 129.14 30.9119L130.273 31.2301C130.154 31.6146 129.953 31.9527 129.672 32.2443C129.39 32.5327 129.042 32.758 128.628 32.9205C128.213 33.0795 127.748 33.1591 127.231 33.1591Z" stroke="#262626"/>
<!-- <circle cx="204" cy="60" r="4" fill="#1A92F9"/> -->
</svg>
