<svg width="208" height="64" viewBox="0 0 208 64" fill="none" xmlns="http://www.w3.org/2000/svg">
<rect x="0.5" y="0.5" width="199" height="55" rx="7.5" fill="#2563EB" fill-opacity="0.05"/>
<rect x="0.5" y="0.5" width="199" height="55" rx="7.5" stroke="#1A92F9"/>
<rect x="50" y="16.5" width="23" height="23" rx="3.5" fill="#E6F3FE"/>
<rect x="50" y="16.5" width="23" height="23" rx="3.5" stroke="#389FFA"/>
<path d="M65.5 26.666L61.9714 30.1946C61.7111 30.455 61.2889 30.455 61.0286 30.1946L57.5 26.666" stroke="#1A92F9" stroke-linecap="round"/>
<path d="M85.875 33H82.733V22.8182H86.0142C87.0019 22.8182 87.8471 23.022 88.5497 23.4297C89.2524 23.834 89.791 24.4157 90.1655 25.1747C90.54 25.9304 90.7273 26.8352 90.7273 27.8892C90.7273 28.9498 90.5384 29.8629 90.1605 30.6286C89.7827 31.3909 89.2325 31.9775 88.5099 32.3885C87.7874 32.7962 86.9091 33 85.875 33ZM83.9659 31.9062H85.7955C86.6373 31.9062 87.335 31.7438 87.8885 31.419C88.442 31.0942 88.8546 30.6319 89.1264 30.032C89.3982 29.4321 89.5341 28.7178 89.5341 27.8892C89.5341 27.0672 89.3999 26.3596 89.1314 25.7663C88.8629 25.1697 88.4619 24.7124 87.9283 24.3942C87.3946 24.0727 86.7301 23.9119 85.9347 23.9119H83.9659V31.9062ZM92.6364 33V25.3636H93.7699V26.517H93.8494C93.9886 26.1392 94.2405 25.8326 94.6051 25.5973C94.9697 25.362 95.3807 25.2443 95.8381 25.2443C95.9242 25.2443 96.032 25.246 96.1612 25.2493C96.2905 25.2526 96.3883 25.2576 96.4545 25.2642V26.4574C96.4148 26.4474 96.3236 26.4325 96.1811 26.4126C96.0419 26.3894 95.8944 26.3778 95.7386 26.3778C95.3674 26.3778 95.036 26.4557 94.7443 26.6115C94.456 26.764 94.2273 26.9761 94.0582 27.2479C93.8925 27.5163 93.8097 27.8229 93.8097 28.1676V33H92.6364ZM100.715 33.1591C100.026 33.1591 99.4209 32.995 98.9006 32.6669C98.3835 32.3388 97.9792 31.8797 97.6875 31.2898C97.3991 30.6998 97.255 30.0104 97.255 29.2216C97.255 28.4261 97.3991 27.7318 97.6875 27.1385C97.9792 26.5452 98.3835 26.0845 98.9006 25.7564C99.4209 25.4283 100.026 25.2642 100.715 25.2642C101.405 25.2642 102.008 25.4283 102.525 25.7564C103.045 26.0845 103.45 26.5452 103.738 27.1385C104.03 27.7318 104.175 28.4261 104.175 29.2216C104.175 30.0104 104.03 30.6998 103.738 31.2898C103.45 31.8797 103.045 32.3388 102.525 32.6669C102.008 32.995 101.405 33.1591 100.715 33.1591ZM100.715 32.1051C101.239 32.1051 101.67 31.9709 102.008 31.7024C102.346 31.4339 102.596 31.081 102.759 30.6435C102.921 30.206 103.002 29.732 103.002 29.2216C103.002 28.7112 102.921 28.2356 102.759 27.7947C102.596 27.3539 102.346 26.9976 102.008 26.7259C101.67 26.4541 101.239 26.3182 100.715 26.3182C100.192 26.3182 99.7607 26.4541 99.4226 26.7259C99.0845 26.9976 98.8343 27.3539 98.6719 27.7947C98.5095 28.2356 98.4283 28.7112 98.4283 29.2216C98.4283 29.732 98.5095 30.206 98.6719 30.6435C98.8343 31.081 99.0845 31.4339 99.4226 31.7024C99.7607 31.9709 100.192 32.1051 100.715 32.1051ZM105.966 35.8636V25.3636H107.1V26.5767H107.239C107.325 26.4441 107.445 26.2751 107.597 26.0696C107.753 25.8608 107.975 25.6752 108.263 25.5128C108.555 25.3471 108.949 25.2642 109.447 25.2642C110.09 25.2642 110.656 25.425 111.147 25.7464C111.637 26.0679 112.02 26.5237 112.295 27.1136C112.57 27.7036 112.708 28.3996 112.708 29.2017C112.708 30.0104 112.57 30.7114 112.295 31.3047C112.02 31.8946 111.639 32.352 111.152 32.6768C110.665 32.9983 110.103 33.1591 109.466 33.1591C108.976 33.1591 108.583 33.0779 108.288 32.9155C107.993 32.7498 107.766 32.5625 107.607 32.3537C107.448 32.1416 107.325 31.9659 107.239 31.8267H107.14V35.8636H105.966ZM107.12 29.1818C107.12 29.7585 107.204 30.2673 107.373 30.7081C107.542 31.1456 107.789 31.4886 108.114 31.7372C108.439 31.9825 108.837 32.1051 109.307 32.1051C109.798 32.1051 110.207 31.9759 110.535 31.7173C110.867 31.4555 111.115 31.1042 111.281 30.6634C111.45 30.2192 111.535 29.7254 111.535 29.1818C111.535 28.6449 111.452 28.161 111.286 27.7301C111.124 27.2959 110.877 26.9529 110.545 26.701C110.217 26.4458 109.805 26.3182 109.307 26.3182C108.83 26.3182 108.429 26.4392 108.104 26.6811C107.779 26.9197 107.534 27.2545 107.368 27.6854C107.203 28.1129 107.12 28.6117 107.12 29.1818ZM117.381 33.1591C116.745 33.1591 116.183 32.9983 115.696 32.6768C115.209 32.352 114.827 31.8946 114.552 31.3047C114.277 30.7114 114.14 30.0104 114.14 29.2017C114.14 28.3996 114.277 27.7036 114.552 27.1136C114.827 26.5237 115.21 26.0679 115.701 25.7464C116.191 25.425 116.758 25.2642 117.401 25.2642C117.898 25.2642 118.291 25.3471 118.579 25.5128C118.871 25.6752 119.093 25.8608 119.246 26.0696C119.401 26.2751 119.522 26.4441 119.608 26.5767H119.708V22.8182H120.881V33H119.748V31.8267H119.608C119.522 31.9659 119.4 32.1416 119.241 32.3537C119.081 32.5625 118.854 32.7498 118.559 32.9155C118.265 33.0779 117.872 33.1591 117.381 33.1591ZM117.54 32.1051C118.011 32.1051 118.409 31.9825 118.733 31.7372C119.058 31.4886 119.305 31.1456 119.474 30.7081C119.643 30.2673 119.728 29.7585 119.728 29.1818C119.728 28.6117 119.645 28.1129 119.479 27.6854C119.314 27.2545 119.068 26.9197 118.743 26.6811C118.419 26.4392 118.018 26.3182 117.54 26.3182C117.043 26.3182 116.629 26.4458 116.297 26.701C115.969 26.9529 115.722 27.2959 115.557 27.7301C115.394 28.161 115.313 28.6449 115.313 29.1818C115.313 29.7254 115.396 30.2192 115.562 30.6634C115.731 31.1042 115.979 31.4555 116.307 31.7173C116.639 31.9759 117.05 32.1051 117.54 32.1051ZM126.295 33.1591C125.606 33.1591 125.001 32.995 124.481 32.6669C123.964 32.3388 123.559 31.8797 123.268 31.2898C122.979 30.6998 122.835 30.0104 122.835 29.2216C122.835 28.4261 122.979 27.7318 123.268 27.1385C123.559 26.5452 123.964 26.0845 124.481 25.7564C125.001 25.4283 125.606 25.2642 126.295 25.2642C126.985 25.2642 127.588 25.4283 128.105 25.7564C128.625 26.0845 129.03 26.5452 129.318 27.1385C129.61 27.7318 129.756 28.4261 129.756 29.2216C129.756 30.0104 129.61 30.6998 129.318 31.2898C129.03 31.8797 128.625 32.3388 128.105 32.6669C127.588 32.995 126.985 33.1591 126.295 33.1591ZM126.295 32.1051C126.819 32.1051 127.25 31.9709 127.588 31.7024C127.926 31.4339 128.176 31.081 128.339 30.6435C128.501 30.206 128.582 29.732 128.582 29.2216C128.582 28.7112 128.501 28.2356 128.339 27.7947C128.176 27.3539 127.926 26.9976 127.588 26.7259C127.25 26.4541 126.819 26.3182 126.295 26.3182C125.772 26.3182 125.341 26.4541 125.003 26.7259C124.665 26.9976 124.414 27.3539 124.252 27.7947C124.09 28.2356 124.008 28.7112 124.008 29.2216C124.008 29.732 124.09 30.206 124.252 30.6435C124.414 31.081 124.665 31.4339 125.003 31.7024C125.341 31.9709 125.772 32.1051 126.295 32.1051ZM133.017 33L130.69 25.3636H131.923L133.574 31.2102H133.653L135.284 25.3636H136.537L138.148 31.1903H138.227L139.878 25.3636H141.111L138.784 33H137.631L135.96 27.1335H135.841L134.17 33H133.017ZM143.835 28.4062V33H142.662V25.3636H143.795V26.5568H143.895C144.074 26.169 144.345 25.8575 144.71 25.6222C145.075 25.3835 145.545 25.2642 146.122 25.2642C146.639 25.2642 147.091 25.3703 147.479 25.5824C147.867 25.7912 148.169 26.1094 148.384 26.5369C148.599 26.9612 148.707 27.4981 148.707 28.1477V33H147.534V28.2273C147.534 27.6274 147.378 27.16 147.067 26.8253C146.755 26.4872 146.327 26.3182 145.784 26.3182C145.409 26.3182 145.075 26.3994 144.78 26.5618C144.488 26.7242 144.258 26.9612 144.089 27.2727C143.92 27.5843 143.835 27.9621 143.835 28.4062Z" stroke="#262626"/>
<!-- <circle cx="204" cy="60" r="4" fill="#1A92F9"/> -->
</svg>
