<?xml version="1.0" encoding="UTF-8"?>
<!DOCTYPE svg PUBLIC "-//W3C//DTD SVG 1.1//EN" "http://www.w3.org/Graphics/SVG/1.1/DTD/svg11.dtd">
<svg xmlns="http://www.w3.org/2000/svg" version="1.1" width="80px" height="80px" style="shape-rendering:geometricPrecision; text-rendering:geometricPrecision; image-rendering:optimizeQuality; fill-rule:evenodd; clip-rule:evenodd" xmlns:xlink="http://www.w3.org/1999/xlink">
<g><path style="opacity:0.917" fill="#1991f8" d="M 32.5,3.5 C 37.9302,3.161 43.2636,3.661 48.5,5C 49.3333,5.83333 50.1667,6.66667 51,7.5C 50.9016,15.4154 54.235,17.4154 61,13.5C 66.961,15.4609 70.961,19.4609 73,25.5C 73.6667,27.8333 73.6667,30.1667 73,32.5C 71.3573,34.9768 69.524,37.3102 67.5,39.5C 68.8149,41.3159 70.3149,42.9825 72,44.5C 73.791,52.1331 71.6243,58.6331 65.5,64C 64,64.5 62.5,65 61,65.5C 58.5631,64.3458 56.0631,63.8458 53.5,64C 52.1084,66.7238 50.9417,69.5571 50,72.5C 48.8289,73.8932 47.3289,74.7265 45.5,75C 40.4107,75.8257 35.4107,75.4924 30.5,74C 29.6667,73.1667 28.8333,72.3333 28,71.5C 28.0984,63.5846 24.765,61.5846 18,65.5C 12.039,63.5391 8.03903,59.5391 6,53.5C 5.33333,51.1667 5.33333,48.8333 6,46.5C 7.64267,44.0232 9.47601,41.6898 11.5,39.5C 10.1851,37.6841 8.68511,36.0175 7,34.5C 5.20904,26.8669 7.3757,20.3669 13.5,15C 15,14.5 16.5,14 18,13.5C 20.4369,14.6542 22.9369,15.1542 25.5,15C 26.8916,12.2762 28.0583,9.4429 29,6.5C 30.1451,5.36362 31.3117,4.36362 32.5,3.5 Z M 33.5,8.5 C 37.5138,8.33449 41.5138,8.50115 45.5,9C 46.9563,11.2658 47.7896,13.7658 48,16.5C 49.214,18.0488 50.714,19.2155 52.5,20C 55.9594,20.2766 59.2927,19.9433 62.5,19C 65.4012,21.9673 67.4012,25.4673 68.5,29.5C 65.5265,32.0907 63.5265,35.424 62.5,39.5C 63.5265,43.576 65.5265,46.9093 68.5,49.5C 67.4154,54.0118 65.0821,57.6784 61.5,60.5C 57.8784,58.2691 54.2117,58.1024 50.5,60C 48.3896,63.0969 46.7229,66.4302 45.5,70C 41.5,70.6667 37.5,70.6667 33.5,70C 32.0437,67.7342 31.2104,65.2342 31,62.5C 29.2568,60.1285 26.9234,58.7952 24,58.5C 21.4554,59.2492 18.9554,59.7492 16.5,60C 13.5988,57.0327 11.5988,53.5327 10.5,49.5C 13.4735,46.9093 15.4735,43.576 16.5,39.5C 15.4735,35.424 13.4735,32.0907 10.5,29.5C 11.5846,24.9882 13.9179,21.3216 17.5,18.5C 21.1216,20.7309 24.7883,20.8976 28.5,19C 30.6876,15.7535 32.3543,12.2535 33.5,8.5 Z M 36.5,28.5 C 48.6959,29.2325 52.5292,35.2325 48,46.5C 40.0685,52.6785 33.7352,51.3452 29,42.5C 28.1102,35.9429 30.6102,31.2762 36.5,28.5 Z"/></g>
<g><path style="opacity:0.907" fill="#1991f8" d="M 36.5,23.5 C 47.7333,23.0697 54.0667,28.403 55.5,39.5C 54.5,49.1667 49.1667,54.5 39.5,55.5C 29.8333,54.5 24.5,49.1667 23.5,39.5C 24.2436,31.1029 28.5769,25.7696 36.5,23.5 Z M 36.5,28.5 C 30.6102,31.2762 28.1102,35.9429 29,42.5C 33.7352,51.3452 40.0685,52.6785 48,46.5C 52.5292,35.2325 48.6959,29.2325 36.5,28.5 Z"/></g>
</svg>
