<svg width="24" height="24" viewBox="0 0 24 24" fill="none" xmlns="http://www.w3.org/2000/svg">
<rect x="0.5" y="0.5" width="23" height="23" rx="3.5" fill="#E6F3FE"/>
<rect x="0.5" y="0.5" width="23" height="23" rx="3.5" stroke="#389FFA"/>
<path d="M9.33304 6.66602H14.6664M11.9997 18.666V11.9993M9.58448 9.33268H14.4149C14.5638 9.33268 14.6946 9.43134 14.7355 9.57444L15.9505 13.827C15.9812 13.9346 15.9559 14.0505 15.883 14.1355L12.2528 18.3707C12.1198 18.526 11.8797 18.526 11.7466 18.3707L8.11639 14.1355C8.04354 14.0505 8.01821 13.9346 8.04896 13.827L9.26397 9.57444C9.30486 9.43134 9.43565 9.33268 9.58448 9.33268ZM12.6664 11.9993C12.6664 12.3675 12.3679 12.666 11.9997 12.666C11.6315 12.666 11.333 12.3675 11.333 11.9993C11.333 11.6312 11.6315 11.3327 11.9997 11.3327C12.3679 11.3327 12.6664 11.6312 12.6664 11.9993Z" stroke="#1A92F9" stroke-linecap="round"/>
</svg>
