<svg width="208" height="64" viewBox="0 0 208 64" fill="none" xmlns="http://www.w3.org/2000/svg">
<rect x="0.5" y="0.5" width="199" height="55" rx="7.5" fill="#2563EB" fill-opacity="0.05"/>
<rect x="0.5" y="0.5" width="199" height="55" rx="7.5" stroke="#1A92F9"/>
<rect x="63" y="16.5" width="23" height="23" rx="3.5" fill="#E6F3FE"/>
<rect x="63" y="16.5" width="23" height="23" rx="3.5" stroke="#389FFA"/>
<path d="M71.8333 22.666H77.1666M74.5 34.666V27.9993M72.0847 25.3327H76.9152C77.064 25.3327 77.1948 25.4313 77.2357 25.5744L78.4507 29.827C78.4815 29.9346 78.4561 30.0505 78.3833 30.1355L74.753 34.3707C74.62 34.526 74.3799 34.526 74.2469 34.3707L70.6166 30.1355C70.5438 30.0505 70.5185 29.9346 70.5492 29.827L71.7642 25.5744C71.8051 25.4313 71.9359 25.3327 72.0847 25.3327ZM75.1666 27.9993C75.1666 28.3675 74.8681 28.666 74.5 28.666C74.1318 28.666 73.8333 28.3675 73.8333 27.9993C73.8333 27.6312 74.1318 27.3327 74.5 27.3327C74.8681 27.3327 75.1666 27.6312 75.1666 27.9993Z" stroke="#1A92F9" strokeLinecap="round"/>
<path d="M96.9659 22.8182V33H95.733V22.8182H96.9659ZM100.452 28.4062V33H99.2789V25.3636H100.412V26.5568H100.512C100.691 26.169 100.963 25.8575 101.327 25.6222C101.692 25.3835 102.162 25.2642 102.739 25.2642C103.256 25.2642 103.709 25.3703 104.096 25.5824C104.484 25.7912 104.786 26.1094 105.001 26.5369C105.217 26.9612 105.324 27.4981 105.324 28.1477V33H104.151V28.2273C104.151 27.6274 103.995 27.16 103.684 26.8253C103.372 26.4872 102.945 26.3182 102.401 26.3182C102.027 26.3182 101.692 26.3994 101.397 26.5618C101.105 26.7242 100.875 26.9612 100.706 27.2727C100.537 27.5843 100.452 27.9621 100.452 28.4062ZM107.468 33V25.3636H108.642V33H107.468ZM108.065 24.0909C107.836 24.0909 107.639 24.013 107.473 23.8572C107.311 23.7015 107.23 23.5142 107.23 23.2955C107.23 23.0767 107.311 22.8894 107.473 22.7337C107.639 22.5779 107.836 22.5 108.065 22.5C108.294 22.5 108.489 22.5779 108.652 22.7337C108.817 22.8894 108.9 23.0767 108.9 23.2955C108.9 23.5142 108.817 23.7015 108.652 23.8572C108.489 24.013 108.294 24.0909 108.065 24.0909ZM114.112 25.3636V26.358H110.154V25.3636H114.112ZM111.308 23.5341H112.481V30.8125C112.481 31.1439 112.529 31.3925 112.625 31.5582C112.725 31.7206 112.851 31.83 113.003 31.8864C113.159 31.9394 113.323 31.9659 113.495 31.9659C113.624 31.9659 113.731 31.9593 113.813 31.946C113.896 31.9295 113.963 31.9162 114.012 31.9062L114.251 32.9602C114.171 32.9901 114.06 33.0199 113.918 33.0497C113.775 33.0829 113.595 33.0994 113.376 33.0994C113.044 33.0994 112.72 33.0282 112.401 32.8857C112.087 32.7431 111.825 32.526 111.616 32.2344C111.41 31.9427 111.308 31.5748 111.308 31.1307V23.5341ZM115.877 33V25.3636H117.05V33H115.877ZM116.473 24.0909C116.244 24.0909 116.047 24.013 115.882 23.8572C115.719 23.7015 115.638 23.5142 115.638 23.2955C115.638 23.0767 115.719 22.8894 115.882 22.7337C116.047 22.5779 116.244 22.5 116.473 22.5C116.702 22.5 116.897 22.5779 117.06 22.7337C117.226 22.8894 117.308 23.0767 117.308 23.2955C117.308 23.5142 117.226 23.7015 117.06 23.8572C116.897 24.013 116.702 24.0909 116.473 24.0909ZM121.446 33.179C120.962 33.179 120.523 33.0878 120.129 32.9055C119.734 32.7199 119.421 32.4531 119.189 32.1051C118.957 31.7538 118.841 31.3295 118.841 30.8324C118.841 30.3949 118.927 30.0402 119.099 29.7685C119.272 29.4934 119.502 29.2779 119.79 29.1222C120.079 28.9664 120.397 28.8504 120.745 28.7741C121.096 28.6946 121.449 28.6316 121.804 28.5852C122.268 28.5256 122.644 28.4808 122.933 28.451C123.224 28.4179 123.436 28.3632 123.569 28.2869C123.705 28.2107 123.773 28.0781 123.773 27.8892V27.8494C123.773 27.3589 123.638 26.9777 123.37 26.706C123.105 26.4342 122.702 26.2983 122.162 26.2983C121.602 26.2983 121.163 26.4209 120.844 26.6662C120.526 26.9115 120.303 27.1733 120.173 27.4517L119.06 27.054C119.259 26.59 119.524 26.2287 119.855 25.9702C120.19 25.7083 120.554 25.526 120.949 25.4233C121.347 25.3172 121.738 25.2642 122.122 25.2642C122.367 25.2642 122.649 25.294 122.967 25.3537C123.289 25.41 123.599 25.5277 123.897 25.7067C124.199 25.8857 124.449 26.1558 124.648 26.517C124.847 26.8783 124.946 27.3622 124.946 27.9688V33H123.773V31.9659H123.713C123.634 32.1316 123.501 32.3089 123.315 32.4979C123.13 32.6868 122.883 32.8475 122.575 32.9801C122.266 33.1127 121.89 33.179 121.446 33.179ZM121.625 32.125C122.089 32.125 122.48 32.0339 122.798 31.8516C123.12 31.6693 123.362 31.4339 123.524 31.1456C123.69 30.8572 123.773 30.554 123.773 30.2358V29.1619C123.723 29.2216 123.614 29.2763 123.445 29.326C123.279 29.3724 123.087 29.4138 122.868 29.4503C122.652 29.4834 122.442 29.5133 122.237 29.5398C122.034 29.563 121.87 29.5829 121.744 29.5994C121.439 29.6392 121.154 29.7038 120.889 29.7933C120.627 29.8795 120.415 30.0104 120.253 30.1861C120.094 30.3584 120.014 30.5937 120.014 30.892C120.014 31.2997 120.165 31.608 120.467 31.8168C120.772 32.0223 121.158 32.125 121.625 32.125ZM128.261 22.8182V33H127.088V22.8182H128.261ZM135.819 27.0739L134.765 27.3722C134.699 27.1965 134.601 27.0258 134.472 26.8601C134.346 26.6911 134.173 26.5518 133.955 26.4425C133.736 26.3331 133.456 26.2784 133.114 26.2784C132.647 26.2784 132.258 26.3861 131.946 26.6016C131.638 26.8137 131.484 27.0838 131.484 27.4119C131.484 27.7036 131.59 27.9339 131.802 28.103C132.014 28.272 132.345 28.4129 132.796 28.5256L133.93 28.804C134.612 28.9697 135.121 29.2232 135.456 29.5646C135.791 29.9027 135.958 30.3385 135.958 30.8722C135.958 31.3097 135.832 31.7008 135.58 32.0455C135.332 32.3902 134.984 32.6619 134.536 32.8608C134.089 33.0597 133.568 33.1591 132.975 33.1591C132.196 33.1591 131.552 32.9901 131.041 32.652C130.531 32.3139 130.208 31.8201 130.072 31.1705L131.185 30.892C131.291 31.303 131.492 31.6113 131.787 31.8168C132.085 32.0223 132.475 32.125 132.955 32.125C133.502 32.125 133.936 32.009 134.258 31.777C134.583 31.5417 134.745 31.2599 134.745 30.9318C134.745 30.6667 134.652 30.4446 134.467 30.2656C134.281 30.0833 133.996 29.9474 133.612 29.858L132.339 29.5597C131.639 29.3939 131.126 29.1371 130.798 28.7891C130.473 28.4377 130.31 27.9986 130.31 27.4716C130.31 27.0407 130.431 26.6596 130.673 26.3281C130.919 25.9967 131.252 25.7365 131.673 25.5476C132.097 25.3587 132.577 25.2642 133.114 25.2642C133.87 25.2642 134.463 25.4299 134.894 25.7614C135.328 26.0928 135.637 26.5303 135.819 27.0739Z" stroke="#262626"/>
<!-- <circle cx="204" cy="60" r="4" fill="#1A92F9"/> -->
</svg>
