<svg width="24" height="24" viewBox="0 0 24 24" fill="none" xmlns="http://www.w3.org/2000/svg">
<rect x="0.5" y="0.5" width="23" height="23" rx="3.5" fill="#E6F3FE"/>
<rect x="0.5" y="0.5" width="23" height="23" rx="3.5" stroke="#389FFA"/>
<path d="M11.5404 16.0332L9.69373 17.4226C9.0022 18.0004 8.3035 18.5738 7.59762 19.1426C7.46989 19.2457 7.37731 19.3104 7.31987 19.3368C6.68616 19.628 6.23951 18.8221 6.75192 18.4147C7.23334 18.0317 7.74537 17.6077 8.28801 17.1427L9.44773 16.1031C11.0651 14.5983 12.5581 12.9809 13.9268 11.251C14.4452 10.5949 14.9244 9.91504 15.3642 9.21151C15.5864 8.85711 15.7682 8.48728 15.9095 8.10203C15.9158 8.08464 15.9169 8.06581 15.9128 8.04779C15.9087 8.02976 15.8995 8.01332 15.8863 8.00044C15.8731 7.98756 15.8565 7.9788 15.8385 7.97519C15.8205 7.97159 15.8019 7.9733 15.7848 7.98013C15.0706 8.26305 14.361 8.64228 13.6558 9.11783C13.6052 9.15169 12.8585 9.63965 11.4157 10.5817C10.4914 11.1852 9.54107 11.6878 8.56462 12.0896C7.22691 12.6404 5.05371 13.1122 4.17967 11.4925C3.81124 10.8097 3.84071 9.78938 4.04363 9.05914C4.48954 7.46019 5.35904 6.16298 6.65215 5.16749C7.47632 4.53318 8.76187 4.2623 9.40918 5.25779C10.4578 6.87178 8.86957 9.52528 7.72912 10.6697C7.51826 10.8804 7.28586 10.906 7.03193 10.7465C7.02815 10.7442 7.01492 10.733 6.99225 10.7126C6.74209 10.4922 6.71677 10.2484 6.91629 9.98126C7.04251 9.81271 7.28586 9.48841 7.64636 9.00835C8.20639 8.2623 8.79588 7.08058 8.61676 6.13476C8.46939 5.35937 7.6509 5.7702 7.27566 6.07043C6.11027 7.00383 5.11153 8.52641 4.98796 10.0625C4.8712 11.5174 6.02185 11.7036 7.12489 11.4124C9.1099 10.8887 10.8308 9.71151 12.614 8.47674C13.1377 8.11407 13.7594 7.7465 14.4789 7.37404C14.8832 7.16411 15.263 7.01362 15.6182 6.92257C16.4231 6.71715 17.118 7.08171 17.0228 8.01625C16.985 8.38194 16.8459 8.78901 16.6056 9.23747C15.803 10.7296 14.8269 11.9463 13.6717 13.2837C13.6596 13.298 13.6547 13.3153 13.657 13.3357C13.6574 13.3404 13.6591 13.345 13.6618 13.349C13.6646 13.3529 13.6683 13.3561 13.6726 13.3584C13.677 13.3606 13.6819 13.3618 13.6868 13.3617C13.6918 13.3617 13.6967 13.3605 13.7012 13.3582C15.487 12.35 17.3772 11.5162 19.3717 10.8571C20.0836 10.6212 20.4486 11.6483 19.6596 11.9079C16.7779 12.856 14.0715 14.2311 11.5404 16.0332Z" fill="#1A92F9"/>
</svg>
