<svg width="208" height="64" viewBox="0 0 208 64" fill="none" xmlns="http://www.w3.org/2000/svg">
<rect x="0.5" y="0.5" width="199" height="55" rx="7.5" fill="#2563EB" fill-opacity="0.1"/>
<rect x="0.5" y="0.5" width="199" height="55" rx="7.5" stroke="#1A92F9"/>
<rect x="70" y="16.5" width="23" height="23" rx="3.5" fill="#E6F3FE"/>
<rect x="70" y="16.5" width="23" height="23" rx="3.5" stroke="#389FFA"/>
<path d="M79.5001 26.666H81.5001M81.5001 26.666H83.5001M81.5001 26.666V30.666M76.1667 25.3327V30.666M84.1667 22.666L78.8334 22.666M86.8334 25.3327V30.666M84.1667 33.3327H78.8334M75.2334 24.666H77.1001C77.4734 24.666 77.6601 24.666 77.8027 24.5934C77.9282 24.5294 78.0302 24.4275 78.0941 24.302C78.1667 24.1594 78.1667 23.9727 78.1667 23.5993V21.7327C78.1667 21.3593 78.1667 21.1726 78.0941 21.03C78.0302 20.9046 77.9282 20.8026 77.8027 20.7387C77.6601 20.666 77.4734 20.666 77.1001 20.666H75.2334C74.86 20.666 74.6734 20.666 74.5308 20.7387C74.4053 20.8026 74.3033 20.9046 74.2394 21.03C74.1667 21.1726 74.1667 21.3593 74.1667 21.7327V23.5993C74.1667 23.9727 74.1667 24.1594 74.2394 24.302C74.3033 24.4275 74.4053 24.5294 74.5308 24.5934C74.6734 24.666 74.86 24.666 75.2334 24.666ZM75.2334 35.3327H77.1001C77.4734 35.3327 77.6601 35.3327 77.8027 35.26C77.9282 35.1961 78.0302 35.0941 78.0941 34.9687C78.1667 34.8261 78.1667 34.6394 78.1667 34.266V32.3993C78.1667 32.026 78.1667 31.8393 78.0941 31.6967C78.0302 31.5712 77.9282 31.4693 77.8027 31.4053C77.6601 31.3327 77.4734 31.3327 77.1001 31.3327H75.2334C74.86 31.3327 74.6734 31.3327 74.5308 31.4053C74.4053 31.4693 74.3033 31.5712 74.2394 31.6967C74.1667 31.8393 74.1667 32.026 74.1667 32.3993V34.266C74.1667 34.6394 74.1667 34.8261 74.2394 34.9687C74.3033 35.0941 74.4053 35.1961 74.5308 35.26C74.6734 35.3327 74.86 35.3327 75.2334 35.3327ZM85.9001 24.666H87.7667C88.1401 24.666 88.3268 24.666 88.4694 24.5934C88.5949 24.5294 88.6968 24.4275 88.7608 24.302C88.8334 24.1594 88.8334 23.9727 88.8334 23.5993V21.7327C88.8334 21.3593 88.8334 21.1726 88.7608 21.03C88.6968 20.9046 88.5949 20.8026 88.4694 20.7387C88.3268 20.666 88.1401 20.666 87.7667 20.666H85.9001C85.5267 20.666 85.34 20.666 85.1974 20.7387C85.072 20.8026 84.97 20.9046 84.9061 21.03C84.8334 21.1726 84.8334 21.3593 84.8334 21.7327V23.5993C84.8334 23.9727 84.8334 24.1594 84.9061 24.302C84.97 24.4275 85.072 24.5294 85.1974 24.5934C85.34 24.666 85.5267 24.666 85.9001 24.666ZM85.9001 35.3327H87.7667C88.1401 35.3327 88.3268 35.3327 88.4694 35.26C88.5949 35.1961 88.6968 35.0941 88.7608 34.9687C88.8334 34.8261 88.8334 34.6394 88.8334 34.266V32.3993C88.8334 32.026 88.8334 31.8393 88.7608 31.6967C88.6968 31.5712 88.5949 31.4693 88.4694 31.4053C88.3268 31.3327 88.1401 31.3327 87.7667 31.3327H85.9001C85.5267 31.3327 85.34 31.3327 85.1974 31.4053C85.072 31.4693 84.97 31.5712 84.9061 31.6967C84.8334 31.8393 84.8334 32.026 84.8334 32.3993V34.266C84.8334 34.6394 84.8334 34.8261 84.9061 34.9687C84.97 35.0941 85.072 35.1961 85.1974 35.26C85.34 35.3327 85.5267 35.3327 85.9001 35.3327Z" stroke="#1A92F9" stroke-linecap="round"/>
<path d="M102.176 23.9119V22.8182H109.812V23.9119H106.611V33H105.378V23.9119H102.176ZM113.651 33.1591C112.915 33.1591 112.28 32.9967 111.746 32.6719C111.216 32.3438 110.807 31.8864 110.518 31.2997C110.233 30.7098 110.091 30.0237 110.091 29.2415C110.091 28.4593 110.233 27.7699 110.518 27.1733C110.807 26.5734 111.208 26.1061 111.722 25.7713C112.239 25.4332 112.842 25.2642 113.531 25.2642C113.929 25.2642 114.322 25.3305 114.71 25.4631C115.097 25.5956 115.45 25.8111 115.768 26.1094C116.087 26.4044 116.34 26.7955 116.529 27.2827C116.718 27.7699 116.812 28.3698 116.812 29.0824V29.5795H110.926V28.5653H115.619C115.619 28.1345 115.533 27.75 115.361 27.4119C115.192 27.0739 114.95 26.8071 114.635 26.6115C114.323 26.416 113.955 26.3182 113.531 26.3182C113.064 26.3182 112.66 26.4342 112.318 26.6662C111.98 26.8949 111.72 27.1932 111.538 27.5611C111.355 27.929 111.264 28.3234 111.264 28.7443V29.4205C111.264 29.9972 111.364 30.486 111.562 30.8871C111.765 31.2848 112.045 31.5881 112.403 31.7969C112.761 32.0024 113.177 32.1051 113.651 32.1051C113.959 32.1051 114.237 32.062 114.486 31.9759C114.738 31.8864 114.955 31.7538 115.137 31.5781C115.319 31.3991 115.46 31.1771 115.56 30.9119L116.693 31.2301C116.574 31.6146 116.373 31.9527 116.092 32.2443C115.81 32.5327 115.462 32.758 115.048 32.9205C114.633 33.0795 114.168 33.1591 113.651 33.1591ZM119.267 25.3636L121.097 28.4858L122.926 25.3636H124.279L121.813 29.1818L124.279 33H122.926L121.097 30.0369L119.267 33H117.915L120.341 29.1818L117.915 25.3636H119.267ZM129.274 25.3636V26.358H125.316V25.3636H129.274ZM126.47 23.5341H127.643V30.8125C127.643 31.1439 127.691 31.3925 127.787 31.5582C127.887 31.7206 128.013 31.83 128.165 31.8864C128.321 31.9394 128.485 31.9659 128.657 31.9659C128.787 31.9659 128.893 31.9593 128.975 31.946C129.058 31.9295 129.125 31.9162 129.174 31.9062L129.413 32.9602C129.333 32.9901 129.222 33.0199 129.08 33.0497C128.937 33.0829 128.757 33.0994 128.538 33.0994C128.207 33.0994 127.882 33.0282 127.564 32.8857C127.249 32.7431 126.987 32.526 126.778 32.2344C126.573 31.9427 126.47 31.5748 126.47 31.1307V23.5341Z" fill="#262626" stroke="" class='text' />
</svg>
